<?xml version="1.0" standalone="no"?>
<!DOCTYPE svg PUBLIC "-//W3C//DTD SVG 20010904//EN"
 "http://www.w3.org/TR/2001/REC-SVG-20010904/DTD/svg10.dtd">
<svg version="1.0" xmlns="http://www.w3.org/2000/svg"
 width="890.000000pt" height="890.000000pt" viewBox="0 0 890.000000 890.000000"
 preserveAspectRatio="xMidYMid meet">
<metadata>
Created by potrace 1.14, written by Peter Selinger 2001-2017
</metadata>
<g transform="translate(0.000000,890.000000) scale(0.100000,-0.100000)"
fill="#000000" stroke="none">
<path d="M5550 7237 c-3 -3 -81 -8 -175 -11 -258 -10 -312 -15 -545 -57 -444
-79 -842 -169 -952 -214 -35 -15 -113 -44 -174 -65 -61 -22 -153 -58 -205 -81
-52 -22 -139 -57 -194 -76 -55 -19 -129 -50 -165 -67 -102 -51 -471 -270 -547
-323 -37 -27 -95 -65 -128 -85 -104 -64 -461 -363 -597 -502 -179 -182 -419
-488 -579 -738 -203 -319 -271 -437 -290 -502 -11 -37 -9 -35 96 99 212 271
328 385 853 838 330 285 744 570 1122 772 352 188 831 390 1066 449 144 36
452 90 659 116 82 11 439 15 454 6 3 -2 78 -7 166 -10 222 -9 300 -15 370 -31
33 -7 114 -20 180 -29 173 -23 218 -32 430 -82 244 -58 457 -125 518 -164 26
-16 64 -37 84 -45 139 -58 242 -246 279 -510 24 -166 7 -349 -54 -570 -16 -61
-33 -126 -36 -146 -10 -57 -115 -397 -140 -453 -8 -17 -44 -97 -79 -177 -73
-161 -149 -293 -241 -414 -107 -142 -185 -210 -361 -315 -49 -29 -121 -72
-160 -96 -90 -54 -139 -78 -228 -113 -40 -16 -124 -50 -187 -76 -130 -53 -327
-128 -411 -155 -59 -19 -153 -37 -524 -100 -126 -22 -254 -44 -284 -50 -29 -5
-124 -17 -210 -25 -86 -8 -196 -20 -246 -25 -49 -5 -205 -12 -345 -14 -140 -3
-284 -6 -320 -7 l-65 -1 50 -9 c56 -10 334 -34 500 -45 61 -3 113 -8 117 -10
10 -6 303 -6 373 0 33 3 105 8 160 11 114 7 348 44 498 79 167 40 574 165 688
211 59 24 147 64 195 88 49 24 123 59 164 77 237 103 517 318 841 647 142 144
180 189 261 313 312 475 539 1030 614 1505 20 124 25 400 10 555 -9 91 -11 95
-50 138 -43 47 -139 115 -178 127 -13 4 -30 13 -38 20 -22 18 -368 128 -552
174 -129 33 -453 99 -608 125 -63 10 -223 25 -335 30 -197 10 -540 18 -545 13z"/>
<path d="M4239 6176 c-2 -2 -33 -7 -68 -10 -191 -20 -373 -83 -514 -179 -59
-39 -206 -177 -190 -177 4 0 1 -6 -7 -13 -18 -14 -51 -65 -48 -71 2 -3 -6 -12
-17 -20 -11 -9 -16 -16 -11 -16 5 0 1 -9 -10 -21 -10 -12 -18 -23 -17 -25 1
-2 -6 -24 -17 -50 -11 -25 -20 -52 -20 -60 0 -8 -4 -14 -8 -14 -4 0 -9 -12
-10 -26 -1 -15 -8 -40 -16 -56 -10 -19 -11 -26 -3 -21 9 5 9 3 1 -8 -6 -8 -10
-24 -9 -36 1 -13 -3 -23 -8 -23 -5 0 -7 -6 -4 -14 3 -8 3 -17 -1 -20 -6 -7 -8
-27 -15 -147 -2 -36 -7 -71 -11 -78 -4 -6 -4 -11 1 -11 4 0 8 -42 9 -93 1
-122 6 -177 16 -183 4 -3 3 -14 -2 -25 -7 -12 -7 -19 -1 -19 5 0 10 -8 10 -17
0 -17 8 -58 11 -58 1 0 3 -9 5 -20 6 -36 13 -59 36 -120 13 -33 24 -66 25 -73
1 -8 10 -22 18 -31 9 -10 16 -23 16 -29 0 -14 69 -115 82 -120 4 -2 8 -8 8
-13 0 -14 126 -139 134 -132 3 3 6 2 6 -4 0 -21 151 -109 252 -146 79 -30 213
-63 298 -73 82 -10 356 -11 435 -2 293 35 538 150 684 322 9 10 21 23 27 30 5
6 19 26 29 44 11 17 23 32 27 32 4 0 8 5 8 10 0 6 11 27 24 48 12 20 24 40 24
45 1 4 10 28 22 53 11 26 20 50 20 55 0 4 5 20 12 36 6 15 12 35 13 43 1 8 5
26 8 40 4 14 9 36 11 50 3 14 5 25 6 25 2 0 3 18 4 40 1 23 5 45 8 50 3 6 5
31 4 58 0 26 1 47 4 47 5 0 5 77 0 207 -2 42 -7 60 -14 56 -6 -4 -5 0 1 9 7 8
10 18 6 21 -3 4 -6 23 -5 42 1 19 -3 37 -7 40 -5 3 -8 16 -6 30 1 14 -1 25 -4
25 -3 0 -7 15 -8 33 -4 49 -6 57 -14 57 -4 0 -10 16 -13 35 -4 19 -16 56 -28
82 -12 26 -23 54 -24 62 -2 8 -7 17 -13 20 -6 4 -17 24 -26 44 -9 21 -22 40
-30 43 -8 4 -13 10 -10 14 3 4 -11 24 -30 44 -19 21 -35 39 -35 42 0 3 -16 19
-36 37 -20 18 -44 39 -54 48 -70 65 -248 156 -360 184 -80 20 -153 35 -190 40
-49 7 -386 16 -391 11z m306 -239 c165 -41 226 -75 325 -178 55 -56 134 -194
144 -251 2 -14 9 -35 15 -46 6 -11 8 -22 5 -25 -3 -3 -2 -12 2 -19 5 -7 10
-22 11 -33 2 -11 6 -31 9 -45 4 -14 7 -44 8 -67 0 -24 5 -43 11 -43 5 0 3 -5
-5 -10 -8 -5 -10 -10 -5 -10 7 0 11 -58 11 -170 -1 -93 -4 -170 -8 -170 -5 0
-8 -5 -8 -11 0 -5 5 -7 12 -3 7 5 8 3 3 -7 -5 -7 -10 -20 -11 -29 -6 -58 -17
-127 -22 -135 -3 -5 -7 -16 -8 -25 -2 -22 -25 -103 -32 -115 -4 -5 -7 -12 -7
-15 -3 -21 -50 -106 -87 -156 -78 -104 -173 -168 -306 -206 -63 -18 -103 -22
-217 -22 -156 0 -237 18 -348 77 -55 29 -177 137 -177 157 0 5 -6 15 -12 22
-20 20 -58 94 -58 111 0 8 -4 17 -10 19 -5 2 -11 14 -14 28 -2 14 -5 27 -6 30
-2 3 -2 8 -1 13 0 4 -4 7 -10 7 -5 0 -7 5 -4 10 3 6 3 16 -2 23 -9 14 -12 28
-17 83 -2 23 -6 46 -9 51 -14 22 -29 383 -16 383 3 0 6 7 6 15 0 8 -5 15 -10
15 -5 0 -3 7 4 17 8 9 12 19 10 22 -4 7 34 20 144 51 97 26 249 82 329 121 33
16 63 29 67 29 3 0 7 -235 7 -522 0 -288 1 -533 1 -545 1 -23 1 -23 175 -23
l173 0 0 710 0 710 -130 0 c-113 0 -132 -2 -146 -18 -9 -10 -23 -22 -31 -25
-8 -4 -40 -23 -70 -42 -52 -33 -194 -105 -250 -127 -14 -5 -73 -27 -131 -48
l-106 -38 16 46 c9 26 21 50 26 54 6 4 7 8 3 8 -10 0 27 72 64 126 54 81 173
184 212 184 9 0 16 4 16 8 0 9 66 29 155 47 57 12 267 13 310 2z"/>
</g>
</svg>
