<?xml version="1.0" standalone="no"?>
<!DOCTYPE svg PUBLIC "-//W3C//DTD SVG 20010904//EN"
 "http://www.w3.org/TR/2001/REC-SVG-20010904/DTD/svg10.dtd">
<svg version="1.0" xmlns="http://www.w3.org/2000/svg"
 width="1200.000000pt" height="1200.000000pt" viewBox="0 0 1200.000000 1200.000000"
 preserveAspectRatio="xMidYMid meet">
<metadata>
Created by potrace 1.14, written by Peter Selinger 2001-2017
</metadata>
<g transform="translate(0.000000,1200.000000) scale(0.100000,-0.100000)"
fill="#000000" stroke="none">
<path d="M5897 11475 c-61 -23 -4401 -2722 -4442 -2762 -21 -20 -50 -62 -64
-92 l-26 -56 0 -2565 0 -2565 26 -56 c14 -30 43 -72 64 -92 46 -44 4386 -2741
4445 -2762 55 -19 145 -19 201 0 59 21 4393 2713 4442 2760 21 20 50 62 65 93
l26 57 -3 1303 c-3 1422 0 1352 -61 1444 -71 107 -221 158 -345 118 -22 -7
-460 -274 -974 -594 -514 -319 -936 -581 -938 -581 -8 0 -1412 870 -1413 875
0 6 -50 -26 2049 1281 843 524 1555 973 1582 997 65 58 100 132 101 214 2 97
-24 162 -91 227 -43 42 -544 356 -2211 1388 -1185 734 -2173 1344 -2195 1355
-52 28 -182 35 -238 13z m1964 -1817 c1476 -914 1857 -1154 1847 -1163 -34
-31 -3701 -2306 -3713 -2303 -31 7 -3715 2302 -3707 2310 8 8 3704 2306 3710
2307 2 1 841 -517 1863 -1151z m-4320 -2685 c858 -533 1559 -970 1559 -973 0
-6 -3114 -1940 -3124 -1940 -3 0 -6 873 -6 1940 0 1067 3 1940 6 1940 4 0 708
-435 1565 -967z m2244 -1394 c172 -105 263 -104 437 4 42 26 79 47 83 47 17 0
1416 -873 1408 -880 -4 -4 -433 -271 -953 -594 -520 -324 -962 -604 -983 -624
-21 -21 -50 -62 -65 -92 l-27 -55 3 -1004 3 -1004 -33 20 c-30 18 -2791 1731
-3201 1987 -99 61 -179 115 -178 119 0 5 721 457 1603 1004 882 548 1648 1024
1703 1059 55 34 104 63 109 63 5 1 46 -22 91 -50z m4225 -1023 l0 -884 -1846
-1146 c-1016 -631 -1848 -1145 -1849 -1144 -1 2 -4 398 -6 881 l-4 878 1845
1149 c1015 632 1848 1149 1853 1150 4 0 7 -398 7 -884z"/>
</g>
</svg>
