<?xml version="1.0" standalone="no"?>
<!DOCTYPE svg PUBLIC "-//W3C//DTD SVG 20010904//EN"
 "http://www.w3.org/TR/2001/REC-SVG-20010904/DTD/svg10.dtd">
<svg version="1.0" xmlns="http://www.w3.org/2000/svg"
 width="500.000000pt" height="500.000000pt" viewBox="0 0 500.000000 500.000000"
 preserveAspectRatio="xMidYMid meet">
<metadata>
Created by potrace 1.14, written by Peter Selinger 2001-2017
</metadata>
<g transform="translate(0.000000,500.000000) scale(0.100000,-0.100000)"
fill="#000000" stroke="none">
<path d="M2295 4985 c-188 -30 -312 -69 -475 -151 -151 -74 -266 -159 -395
-290 -139 -140 -129 -128 -209 -248 -230 -343 -323 -802 -240 -1181 41 -183
134 -412 246 -598 29 -49 58 -96 63 -106 19 -31 129 -186 179 -251 157 -203
441 -506 655 -700 l72 -65 -1 -305 c-1 -168 -1 -319 -1 -336 2 -56 71 -70 351
-68 144 1 185 4 230 20 l55 19 1 335 0 335 220 220 c255 256 321 330 484 540
192 248 358 534 439 755 22 62 58 182 65 220 3 14 7 35 10 47 28 128 25 357
-8 523 -65 336 -230 640 -470 868 -236 224 -508 359 -836 417 -72 13 -356 13
-435 0z m-255 -256 c-8 -5 -46 -28 -85 -51 -379 -224 -631 -590 -720 -1048
-19 -95 -26 -302 -13 -391 5 -35 10 -75 12 -89 24 -172 144 -461 282 -678 32
-52 64 -102 69 -111 19 -32 183 -246 250 -326 86 -103 145 -168 257 -283 50
-50 87 -92 82 -92 -15 0 -311 305 -423 435 -364 422 -575 818 -618 1155 -14
117 -5 317 21 445 25 124 96 309 162 424 135 234 348 434 590 554 123 61 175
83 134 56z m165 -3079 c-3 -5 -12 -10 -18 -10 -7 0 -6 4 3 10 19 12 23 12 15
0z m442 -397 l0 -128 -134 2 c-74 0 -137 3 -139 6 -5 4 -7 127 -5 215 l1 32
139 0 139 0 -1 -127z"/>
<path d="M2238 155 c-1 -1 -41 -5 -88 -9 -353 -25 -340 -86 25 -113 121 -9
568 -9 680 1 165 13 265 35 265 56 0 21 -66 37 -225 55 -59 7 -650 16 -657 10z"/>
</g>
</svg>
